<mxfile host="app.diagrams.net" modified="2024-03-05T19:21:12.435Z" agent="Mozilla/5.0 (Windows NT 10.0; Win64; x64; rv:124.0) Gecko/20100101 Firefox/124.0" etag="XL5dZCFlderWGjlUVFt2" version="24.0.1" type="github">
  <diagram id="C5RBs43oDa-KdzZeNtuy" name="Page-1">
    <mxGraphModel dx="943" dy="488" grid="1" gridSize="10" guides="1" tooltips="1" connect="1" arrows="1" fold="1" page="1" pageScale="1" pageWidth="827" pageHeight="1169" math="0" shadow="0">
      <root>
        <mxCell id="WIyWlLk6GJQsqaUBKTNV-0" />
        <mxCell id="WIyWlLk6GJQsqaUBKTNV-1" parent="WIyWlLk6GJQsqaUBKTNV-0" />
        <mxCell id="U1svLzJcIivGMU_f0EIS-1" value="Inicio" style="ellipse;whiteSpace=wrap;html=1;" vertex="1" parent="WIyWlLk6GJQsqaUBKTNV-1">
          <mxGeometry x="334" y="50" width="80" height="100" as="geometry" />
        </mxCell>
        <mxCell id="U1svLzJcIivGMU_f0EIS-2" value="" style="edgeStyle=none;orthogonalLoop=1;jettySize=auto;html=1;rounded=0;fontSize=12;startSize=8;endSize=8;curved=1;" edge="1" parent="WIyWlLk6GJQsqaUBKTNV-1">
          <mxGeometry width="140" relative="1" as="geometry">
            <mxPoint x="373.5" y="150" as="sourcePoint" />
            <mxPoint x="373.5" y="220" as="targetPoint" />
            <Array as="points">
              <mxPoint x="373.5" y="200" />
            </Array>
          </mxGeometry>
        </mxCell>
        <mxCell id="U1svLzJcIivGMU_f0EIS-6" value="" style="edgeStyle=none;curved=1;rounded=0;orthogonalLoop=1;jettySize=auto;html=1;fontSize=12;startSize=8;endSize=8;" edge="1" parent="WIyWlLk6GJQsqaUBKTNV-1" source="U1svLzJcIivGMU_f0EIS-3" target="U1svLzJcIivGMU_f0EIS-4">
          <mxGeometry relative="1" as="geometry" />
        </mxCell>
        <mxCell id="U1svLzJcIivGMU_f0EIS-3" value="Ingresar la unidad de medida a calcular." style="rounded=1;whiteSpace=wrap;html=1;" vertex="1" parent="WIyWlLk6GJQsqaUBKTNV-1">
          <mxGeometry x="314" y="220" width="120" height="60" as="geometry" />
        </mxCell>
        <mxCell id="U1svLzJcIivGMU_f0EIS-8" value="" style="edgeStyle=none;curved=1;rounded=0;orthogonalLoop=1;jettySize=auto;html=1;fontSize=12;startSize=8;endSize=8;" edge="1" parent="WIyWlLk6GJQsqaUBKTNV-1" source="U1svLzJcIivGMU_f0EIS-4" target="U1svLzJcIivGMU_f0EIS-7">
          <mxGeometry relative="1" as="geometry" />
        </mxCell>
        <mxCell id="U1svLzJcIivGMU_f0EIS-4" value="unidadMed" style="shape=parallelogram;perimeter=parallelogramPerimeter;whiteSpace=wrap;html=1;fixedSize=1;" vertex="1" parent="WIyWlLk6GJQsqaUBKTNV-1">
          <mxGeometry x="314" y="340" width="120" height="60" as="geometry" />
        </mxCell>
        <mxCell id="U1svLzJcIivGMU_f0EIS-10" value="" style="edgeStyle=none;curved=1;rounded=0;orthogonalLoop=1;jettySize=auto;html=1;fontSize=12;startSize=8;endSize=8;" edge="1" parent="WIyWlLk6GJQsqaUBKTNV-1" source="U1svLzJcIivGMU_f0EIS-7" target="U1svLzJcIivGMU_f0EIS-9">
          <mxGeometry relative="1" as="geometry" />
        </mxCell>
        <mxCell id="U1svLzJcIivGMU_f0EIS-7" value="Ingresa la medida." style="whiteSpace=wrap;html=1;" vertex="1" parent="WIyWlLk6GJQsqaUBKTNV-1">
          <mxGeometry x="314" y="520" width="120" height="60" as="geometry" />
        </mxCell>
        <mxCell id="U1svLzJcIivGMU_f0EIS-12" value="" style="edgeStyle=none;curved=1;rounded=0;orthogonalLoop=1;jettySize=auto;html=1;fontSize=12;startSize=8;endSize=8;" edge="1" parent="WIyWlLk6GJQsqaUBKTNV-1" source="U1svLzJcIivGMU_f0EIS-9" target="U1svLzJcIivGMU_f0EIS-11">
          <mxGeometry relative="1" as="geometry" />
        </mxCell>
        <mxCell id="U1svLzJcIivGMU_f0EIS-9" value="medidaCalcular" style="shape=parallelogram;perimeter=parallelogramPerimeter;whiteSpace=wrap;html=1;fixedSize=1;" vertex="1" parent="WIyWlLk6GJQsqaUBKTNV-1">
          <mxGeometry x="314" y="700" width="120" height="60" as="geometry" />
        </mxCell>
        <mxCell id="U1svLzJcIivGMU_f0EIS-14" value="" style="edgeStyle=none;curved=1;rounded=0;orthogonalLoop=1;jettySize=auto;html=1;fontSize=12;startSize=8;endSize=8;" edge="1" parent="WIyWlLk6GJQsqaUBKTNV-1" source="U1svLzJcIivGMU_f0EIS-11" target="U1svLzJcIivGMU_f0EIS-13">
          <mxGeometry relative="1" as="geometry" />
        </mxCell>
        <mxCell id="U1svLzJcIivGMU_f0EIS-20" value="" style="edgeStyle=none;curved=1;rounded=0;orthogonalLoop=1;jettySize=auto;html=1;fontSize=12;startSize=8;endSize=8;" edge="1" parent="WIyWlLk6GJQsqaUBKTNV-1" source="U1svLzJcIivGMU_f0EIS-11" target="U1svLzJcIivGMU_f0EIS-19">
          <mxGeometry relative="1" as="geometry" />
        </mxCell>
        <mxCell id="U1svLzJcIivGMU_f0EIS-11" value="unidadMed=1" style="rhombus;whiteSpace=wrap;html=1;" vertex="1" parent="WIyWlLk6GJQsqaUBKTNV-1">
          <mxGeometry x="334" y="870" width="80" height="80" as="geometry" />
        </mxCell>
        <mxCell id="U1svLzJcIivGMU_f0EIS-16" value="" style="edgeStyle=none;curved=1;rounded=0;orthogonalLoop=1;jettySize=auto;html=1;fontSize=12;startSize=8;endSize=8;" edge="1" parent="WIyWlLk6GJQsqaUBKTNV-1" source="U1svLzJcIivGMU_f0EIS-13" target="U1svLzJcIivGMU_f0EIS-15">
          <mxGeometry relative="1" as="geometry" />
        </mxCell>
        <mxCell id="U1svLzJcIivGMU_f0EIS-13" value="Ingresar la magnitud deseada." style="whiteSpace=wrap;html=1;" vertex="1" parent="WIyWlLk6GJQsqaUBKTNV-1">
          <mxGeometry x="514" y="880" width="120" height="60" as="geometry" />
        </mxCell>
        <mxCell id="U1svLzJcIivGMU_f0EIS-18" value="" style="edgeStyle=none;curved=1;rounded=0;orthogonalLoop=1;jettySize=auto;html=1;fontSize=12;startSize=8;endSize=8;" edge="1" parent="WIyWlLk6GJQsqaUBKTNV-1" source="U1svLzJcIivGMU_f0EIS-15" target="U1svLzJcIivGMU_f0EIS-17">
          <mxGeometry relative="1" as="geometry" />
        </mxCell>
        <mxCell id="U1svLzJcIivGMU_f0EIS-15" value="magDeseada" style="shape=parallelogram;perimeter=parallelogramPerimeter;whiteSpace=wrap;html=1;fixedSize=1;" vertex="1" parent="WIyWlLk6GJQsqaUBKTNV-1">
          <mxGeometry x="514" y="1060" width="120" height="60" as="geometry" />
        </mxCell>
        <mxCell id="U1svLzJcIivGMU_f0EIS-25" value="" style="edgeStyle=none;curved=1;rounded=0;orthogonalLoop=1;jettySize=auto;html=1;fontSize=12;startSize=8;endSize=8;" edge="1" parent="WIyWlLk6GJQsqaUBKTNV-1" source="U1svLzJcIivGMU_f0EIS-17" target="U1svLzJcIivGMU_f0EIS-24">
          <mxGeometry relative="1" as="geometry" />
        </mxCell>
        <mxCell id="U1svLzJcIivGMU_f0EIS-17" value="Medida de magnitud" style="whiteSpace=wrap;html=1;" vertex="1" parent="WIyWlLk6GJQsqaUBKTNV-1">
          <mxGeometry x="314" y="1060" width="120" height="60" as="geometry" />
        </mxCell>
        <mxCell id="U1svLzJcIivGMU_f0EIS-22" value="" style="edgeStyle=none;curved=1;rounded=0;orthogonalLoop=1;jettySize=auto;html=1;fontSize=12;startSize=8;endSize=8;" edge="1" parent="WIyWlLk6GJQsqaUBKTNV-1" source="U1svLzJcIivGMU_f0EIS-19" target="U1svLzJcIivGMU_f0EIS-21">
          <mxGeometry relative="1" as="geometry" />
        </mxCell>
        <mxCell id="U1svLzJcIivGMU_f0EIS-19" value="Diferentes magnitudes" style="rounded=1;whiteSpace=wrap;html=1;" vertex="1" parent="WIyWlLk6GJQsqaUBKTNV-1">
          <mxGeometry x="114" y="880" width="120" height="60" as="geometry" />
        </mxCell>
        <mxCell id="U1svLzJcIivGMU_f0EIS-23" value="" style="edgeStyle=none;curved=1;rounded=0;orthogonalLoop=1;jettySize=auto;html=1;fontSize=12;startSize=8;endSize=8;" edge="1" parent="WIyWlLk6GJQsqaUBKTNV-1" source="U1svLzJcIivGMU_f0EIS-21" target="U1svLzJcIivGMU_f0EIS-17">
          <mxGeometry relative="1" as="geometry" />
        </mxCell>
        <mxCell id="U1svLzJcIivGMU_f0EIS-21" value="magnitudesDife" style="shape=parallelogram;perimeter=parallelogramPerimeter;whiteSpace=wrap;html=1;fixedSize=1;rounded=1;" vertex="1" parent="WIyWlLk6GJQsqaUBKTNV-1">
          <mxGeometry x="114" y="1060" width="120" height="60" as="geometry" />
        </mxCell>
        <mxCell id="U1svLzJcIivGMU_f0EIS-24" value="Fin" style="ellipse;whiteSpace=wrap;html=1;" vertex="1" parent="WIyWlLk6GJQsqaUBKTNV-1">
          <mxGeometry x="334" y="1230" width="80" height="80" as="geometry" />
        </mxCell>
        <mxCell id="U1svLzJcIivGMU_f0EIS-26" value="SI" style="text;strokeColor=none;align=center;fillColor=none;html=1;verticalAlign=middle;whiteSpace=wrap;rounded=0;fontSize=16;" vertex="1" parent="WIyWlLk6GJQsqaUBKTNV-1">
          <mxGeometry x="430" y="870" width="60" height="30" as="geometry" />
        </mxCell>
        <mxCell id="U1svLzJcIivGMU_f0EIS-27" value="NO" style="text;strokeColor=none;align=center;fillColor=none;html=1;verticalAlign=middle;whiteSpace=wrap;rounded=0;fontSize=16;" vertex="1" parent="WIyWlLk6GJQsqaUBKTNV-1">
          <mxGeometry x="260" y="870" width="60" height="30" as="geometry" />
        </mxCell>
      </root>
    </mxGraphModel>
  </diagram>
</mxfile>
